<?xml version="1.0" encoding="utf-8"?>
<!-- Generator: Adobe Illustrator 22.0.0, SVG Export Plug-In . SVG Version: 6.00 Build 0)  -->
<svg version="1.1" id="Layer_1" xmlns="http://www.w3.org/2000/svg" xmlns:xlink="http://www.w3.org/1999/xlink" x="0px" y="0px"
	 viewBox="0 0 150 150" style="enable-background:new 0 0 150 150;" xml:space="preserve">
<style type="text/css">
	.st0{clip-path:url(#SVGID_2_);}
	.st1{clip-path:url(#SVGID_4_);}
	.st2{clip-path:url(#SVGID_6_);}
</style>
<g>
	<g>
		<defs>
			<rect id="SVGID_1_" x="22.9" y="43.1" width="104.1" height="104.1"/>
		</defs>
		<clipPath id="SVGID_2_">
			<use xlink:href="#SVGID_1_"  style="overflow:visible;"/>
		</clipPath>
		<path class="st0" d="M119.8,141.8c-0.5-0.7-1.4-0.8-2.1-0.4c-2.5,1.8-5.4,2.7-8.5,2.7h-7.3c-0.7,0-1.3-0.3-1.8-0.8l-4.1-4.1
			c-2.2-2.2-5.7-2.2-7.9,0l-4.1,4.1c-0.5,0.5-1.1,0.8-1.8,0.8H40.7c-8.1,0-14.7-6.6-14.7-14.7c0-7,4.9-13,11.8-14.4
			c2.6-0.5,4.5-2.8,4.5-5.4V99.2c0-0.8-0.7-1.5-1.5-1.5c-0.8,0-1.5,0.7-1.5,1.5v10.4c0,1.2-0.8,2.2-2.1,2.5c-4.7,1-8.6,3.7-11.2,7.5
			V60.2c0-6.3,4-11.9,9.9-13.9c0.8-0.3,1.6-0.2,2.3,0.3c0.7,0.5,1.1,1.3,1.1,2.1v44.3c0,0.8,0.7,1.5,1.5,1.5c0.8,0,1.5-0.7,1.5-1.5
			V62.4h3c0.7,0,1.3,0.3,1.8,0.8l4.1,4.1c1.1,1.1,2.5,1.6,4,1.6c1.4,0,2.9-0.5,3.9-1.6l4.1-4.1c0.5-0.5,1.1-0.8,1.8-0.8h16.5
			c-0.2-0.2-0.3-0.4-0.5-0.6c-0.1,0-0.1,0-0.2-0.1c0,0,0,0,0,0c-0.1-0.1-0.2-0.1-0.3-0.2c-0.3-0.1-0.5-0.3-0.6-0.5
			c-0.1-0.1-0.1-0.3-0.1-0.4c-0.1-0.2-0.3-0.5-0.4-0.7c0,0-0.1-0.1-0.1-0.1c0,0,0-0.1,0-0.1c0,0,0,0,0,0c-0.1-0.1-0.1-0.2-0.2-0.2
			H64.8c-1.5,0-2.9,0.6-3.9,1.6l-4.1,4.1c-1,1-2.6,1-3.6,0L49.2,61c-1.1-1.1-2.5-1.6-4-1.6h-3V48.7c0-1.8-0.9-3.5-2.4-4.6
			c-1.5-1.1-3.3-1.3-5-0.7c-7.1,2.5-11.9,9.2-11.9,16.8v69.2c0,9.8,8,17.8,17.8,17.8h41.6c1.5,0,2.9-0.6,4-1.6l4.1-4.1
			c1-1,2.6-1,3.6,0l4.1,4.1c1.1,1.1,2.5,1.6,4,1.6h7.3c3.7,0,7.3-1.1,10.3-3.3C120.2,143.5,120.3,142.5,119.8,141.8z"/>
	</g>
	<g>
		<defs>
			<rect id="SVGID_3_" x="22.9" y="43.1" width="104.1" height="104.1"/>
		</defs>
		<clipPath id="SVGID_4_">
			<use xlink:href="#SVGID_3_"  style="overflow:visible;"/>
		</clipPath>
		<path class="st1" d="M115.1,43.4c-0.6-0.2-1.2-0.3-1.8-0.3c-3.1,0-5.6,2.5-5.6,5.6v10.7H92.1c0,0,0,0,0,0.1
			c-0.1,0.1-0.2,0.3-0.2,0.4c0,0.1-0.1,0.2-0.1,0.3c0,0.1-0.1,0.3-0.2,0.4c-0.1,0.5-0.3,1-0.6,1.5c-0.1,0.2-0.4,0.2-0.5,0
			c-0.1,0.1-0.2,0.2-0.2,0.3c-0.1,0.1-0.1,0.2-0.2,0.2h17.6v19.8c0,1.5,0.6,2.9,1.6,3.9l4.1,4.1c0.5,0.5,0.8,1.1,0.8,1.8
			s-0.3,1.3-0.8,1.8l-4.1,4.1c-1.1,1.1-1.6,2.5-1.6,3.9v7.7c0,2.6,1.9,4.9,4.5,5.4c6.8,1.4,11.8,7.5,11.8,14.4c0,3-0.9,5.8-2.5,8.3
			c-0.5,0.7-0.3,1.6,0.4,2.1c0.3,0.2,0.6,0.3,0.9,0.3c0.5,0,1-0.2,1.3-0.7c2-3,3.1-6.4,3.1-10V60.2C127,52.7,122.2,45.9,115.1,43.4z
			 M123.9,119.5c-2.5-3.8-6.5-6.5-11.2-7.5c-1.2-0.3-2.1-1.3-2.1-2.5v-7.7c0-0.7,0.3-1.3,0.8-1.8l4.1-4.1c2.2-2.2,2.2-5.7,0-7.9
			l-4.1-4.1c-0.5-0.5-0.8-1.1-0.8-1.8V48.7c0-1.4,1.1-2.6,2.5-2.6c0.3,0,0.6,0,0.8,0.1c5.9,2.1,9.9,7.7,9.9,13.9L123.9,119.5
			L123.9,119.5z"/>
	</g>
	<g>
		<defs>
			<rect id="SVGID_5_" x="22.9" y="43.1" width="104.1" height="104.1"/>
		</defs>
		<clipPath id="SVGID_6_">
			<use xlink:href="#SVGID_5_"  style="overflow:visible;"/>
		</clipPath>
		<path class="st2" d="M112.8,112"/>
	</g>
</g>
<g>
	<path d="M65.9,43.4l17.2,26c0.7,1.1,1.8,1.7,2.9,1.7s2.2-0.6,2.9-1.7l17.2-26c0.9-1.4,2.2-3.8,2.9-5.4c0.1-0.2,2.1-5.1,2.1-9.6
		c0-13.8-11.2-25.1-25.1-25.1S60.9,14.5,60.9,28.3c0,4.5,2,9.4,2.1,9.6C63.7,39.5,65,41.9,65.9,43.4z M85.9,6.2
		c12.2,0,22.1,9.9,22.1,22.1c0,3.9-1.9,8.5-1.9,8.5c-0.6,1.4-1.8,3.7-2.6,4.9l-17.2,26c-0.3,0.5-0.4,0.5-0.8,0l-17.2-26
		c-0.8-1.3-2.1-3.5-2.6-4.9c0-0.1-1.9-4.6-1.9-8.5C63.8,16.1,73.7,6.2,85.9,6.2z"/>
	<path d="M85.9,41.6c7.3,0,13.3-5.9,13.3-13.3C99.2,21,93.2,15,85.9,15S72.7,21,72.7,28.3C72.7,35.6,78.6,41.6,85.9,41.6z M85.9,18
		c5.7,0,10.3,4.6,10.3,10.3s-4.6,10.3-10.3,10.3S75.6,34,75.6,28.3S80.2,18,85.9,18z"/>
</g>
<polygon points="47.2,122 44.7,122 24.4,122 24.4,125.4 44.7,125.4 44.7,145.6 48.1,145.6 48.1,122 "/>
<rect x="55.4" y="83.7" width="3.3" height="62"/>
<path d="M44.7,61.6v49.9h-5.5v0c-0.1,0.4-0.6,0.7-0.9,0.9c-0.1,0.1-0.1,0.1-0.2,0.2c-0.1,0.2-0.3,0.2-0.4,0.1
	c-0.3,0.1-0.5,0.2-0.8,0.3c-0.2,0.1-0.3,0.2-0.5,0.3c-0.2,0.1-0.3,0-0.4-0.1c-0.5,0.1-1,0.2-1.5,0.2c-0.1,0-0.1,0-0.1,0
	c-0.1,0.1-0.2,0.1-0.3,0.2c-0.6,0.4-1.2,0.8-1.8,1.3h12.4H48v-3.3V61.6L44.7,61.6L44.7,61.6z"/>
<rect x="64.5" y="63.1" transform="matrix(0.7071 -0.7071 0.7071 0.7071 -35.2121 69.4043)" width="3.3" height="28.3"/>
<polygon points="57.2,83.8 55.8,85.2 115.5,144.9 117.9,142.5 59,83.6 "/>
<rect x="103.1" y="88" transform="matrix(0.7071 -0.7071 0.7071 0.7071 -51.1874 107.9714)" width="3.3" height="55.6"/>
<rect x="75" y="84.9" width="37.1" height="3.3"/>
<polygon points="112.5,98.3 112.5,94.9 81.5,94.9 84.9,98.3 "/>
</svg>
